<svg width="19" height="72" viewBox="0 0 19 72" fill="none" xmlns="http://www.w3.org/2000/svg">
<path d="M9.50509 71.6579C8.39701 71.6579 7.29911 70.6038 6.43501 68.5293L2.06367 57.9593C0.904761 55.1603 0 49.332 0 44.6561V20.1904C0 15.1194 1.14876 9.71911 2.62281 7.94097L7.69557 1.78333C8.70199 0.564979 10.2879 0.564979 11.2943 1.78333L16.3772 7.94097C17.8513 9.71911 19 15.1194 19 20.1904V44.6561C19 49.332 18.0952 55.1603 16.9363 57.9593L12.565 68.5293C11.7111 70.6038 10.6132 71.6579 9.50509 71.6579ZM8.23436 6.39333L3.1616 12.5509C2.28734 13.6046 1.52488 17.161 1.52488 20.1904V44.6561C1.52488 47.7843 2.206 52.1638 2.96844 54.0078L7.33975 64.5779C8.50883 67.4098 10.4912 67.4098 11.6603 64.5779L16.0316 54.0078C16.8042 52.1309 17.4751 47.7514 17.4751 44.6561V20.1904C17.4751 17.1939 16.7127 13.6376 15.8384 12.5509L10.7657 6.39333C10.0947 5.57012 8.91547 5.57012 8.23436 6.39333Z" fill="#0033CC"/>
<path d="M9.50461 35.1408C9.48428 35.1408 9.46394 35.1408 9.43345 35.1408C7.9594 35.0091 6.88184 31.354 6.88184 26.9085C6.88184 22.3644 8.03056 18.6434 9.43345 18.6434C10.8363 18.6434 11.9851 22.3644 11.9851 26.9085C11.9749 31.3869 10.8973 35.0087 9.52494 35.1734C9.51477 35.1404 9.51477 35.1408 9.50461 35.1408ZM9.43345 23.5827C8.86416 23.5827 8.40669 25.0645 8.40669 26.9085C8.40669 28.7196 8.84383 30.1682 9.39278 30.2341H9.50461C10.0434 30.1353 10.4602 28.6867 10.4602 26.9085C10.4704 25.0645 10.0027 23.5827 9.43345 23.5827Z" fill="#0033CC"/>
<path d="M9.50553 53.8435C8.63127 53.8435 7.74684 53.0862 7.06573 51.6044C6.38461 50.1555 5.99829 48.0152 5.99829 45.7431C5.99829 43.471 6.38461 41.3307 7.06573 39.8489C8.43812 36.8853 10.5831 36.9183 11.9453 39.8489C12.6265 41.2978 13.0128 43.4381 13.0128 45.7102C13.0128 47.9822 12.6265 50.1226 11.9453 51.6044C11.2642 53.0862 10.3798 53.8435 9.50553 53.8435ZM7.90949 43.932C7.65535 44.4589 7.51302 45.1175 7.52319 45.7102C7.52319 46.3029 7.66551 46.9615 7.90949 47.4883C8.76343 49.3323 10.2476 49.3323 11.1016 47.4883C11.3557 46.9615 11.498 46.3029 11.498 45.7102C11.498 45.1175 11.3557 44.4589 11.1117 43.932C10.2578 42.121 8.76343 42.121 7.90949 43.932Z" fill="#0033CC"/>
</svg>
