<svg width="19" height="32" viewBox="0 0 19 32" fill="none" xmlns="http://www.w3.org/2000/svg">
<path d="M9.50509 31.8373C8.39701 31.8373 7.29911 31.3775 6.43501 30.4725L2.06367 25.8614C0.904761 24.6404 0 22.0979 0 20.058V9.38507C0 7.17289 1.14876 4.81707 2.62281 4.04137L7.69557 1.35515C8.70199 0.823653 10.2879 0.823653 11.2943 1.35515L16.3772 4.04137C17.8513 4.81707 19 7.17289 19 9.38507V20.058C19 22.0979 18.0952 24.6404 16.9363 25.8614L12.565 30.4725C11.7111 31.3775 10.6132 31.8373 9.50509 31.8373ZM8.23436 3.36622L3.1616 6.05243C2.28734 6.5121 1.52488 8.06351 1.52488 9.38507V20.058C1.52488 21.4227 2.206 23.3332 2.96844 24.1377L7.33975 28.7488C8.50883 29.9841 10.4912 29.9841 11.6603 28.7488L16.0316 24.1377C16.8042 23.3189 17.4751 21.4083 17.4751 20.058V9.38507C17.4751 8.07788 16.7127 6.52646 15.8384 6.05243L10.7657 3.36622C10.0947 3.0071 8.91547 3.0071 8.23436 3.36622Z" fill="#0033CC"/>
<path d="M9.50461 15.9071C9.48428 15.9071 9.46394 15.9071 9.43345 15.9071C7.9594 15.8496 6.88184 14.2551 6.88184 12.3158C6.88184 10.3335 8.03056 8.71024 9.43345 8.71024C10.8363 8.71024 11.9851 10.3335 11.9851 12.3158C11.9749 14.2695 10.8973 15.8495 9.52494 15.9213C9.51477 15.9069 9.51477 15.9071 9.50461 15.9071ZM9.43345 10.865C8.86416 10.865 8.40669 11.5114 8.40669 12.3158C8.40669 13.1059 8.84383 13.7378 9.39278 13.7666H9.50461C10.0434 13.7235 10.4602 13.0915 10.4602 12.3158C10.4704 11.5114 10.0027 10.865 9.43345 10.865Z" fill="#0033CC"/>
<path d="M9.50553 24.066C8.63127 24.066 7.74684 23.7356 7.06573 23.0892C6.38461 22.4571 5.99829 21.5234 5.99829 20.5322C5.99829 19.541 6.38461 18.6073 7.06573 17.9609C8.43812 16.6681 10.5831 16.6825 11.9453 17.9609C12.6265 18.593 13.0128 19.5267 13.0128 20.5179C13.0128 21.509 12.6265 22.4427 11.9453 23.0892C11.2642 23.7356 10.3798 24.066 9.50553 24.066ZM7.90949 19.7422C7.65535 19.972 7.51302 20.2593 7.52319 20.5179C7.52319 20.7764 7.66551 21.0637 7.90949 21.2936C8.76343 22.098 10.2476 22.098 11.1016 21.2936C11.3557 21.0637 11.498 20.7764 11.498 20.5179C11.498 20.2593 11.3557 19.972 11.1117 19.7422C10.2578 18.9521 8.76343 18.9521 7.90949 19.7422Z" fill="#0033CC"/>
</svg>
